<?xml version="1.0" standalone="no"?><!DOCTYPE svg PUBLIC "-//W3C//DTD SVG 1.1//EN" "http://www.w3.org/Graphics/SVG/1.1/DTD/svg11.dtd"><svg t="1604849751542" class="icon" viewBox="0 0 1024 1024" version="1.1" xmlns="http://www.w3.org/2000/svg" p-id="3668" xmlns:xlink="http://www.w3.org/1999/xlink" width="200" height="200"><defs><style type="text/css"></style></defs><path d="M531.354 83.891c25.407 0 46.004 20.583 46.004 45.974v204.803c0 19.043 15.447 34.481 34.503 34.481h218.694c25.407 0 46.003 20.583 46.003 45.974v420.448c0 69.825-56.64 126.429-126.51 126.429H255.51C185.64 962 129 905.396 129 835.57V210.32c0-69.825 56.64-126.429 126.51-126.429h275.844zM479.65 387.459c-16.612-1.277-31.946 6.385-39.614 20.433-23.001 38.312 10.223 113.659 25.558 144.308-17.89 54.914-39.614 107.274-67.728 158.356-121.398 52.36-123.954 84.286-123.954 95.78 0 14.048 7.668 28.095 21.724 34.48 5.112 3.832 12.779 5.109 19.168 5.109 31.947 0 69.006-35.758 108.62-105.996 49.837-20.433 99.674-37.035 152.067-48.529 26.836 22.987 60.06 35.758 94.563 38.312 21.724 0 63.894 0 63.894-43.42 1.278-16.602-7.667-44.697-67.727-45.974-26.836 0-53.671 3.83-80.507 8.94-31.947-29.373-58.782-63.854-79.228-102.166 21.724-71.515 23.002-120.044 6.39-143.031-7.668-10.217-20.447-16.602-33.226-16.602zM358.251 771.855c-10.223 16.602-24.28 29.373-42.17 35.758l-3.833 1.277c11.5-16.602 26.835-29.372 46.003-37.035z m132.9-160.91c14.056 21.71 31.946 43.42 51.114 62.576h-3.833l1.278 1.277c-28.114 6.386-58.783 15.325-86.896 25.542v-2.554l-2.556 1.277c14.057-28.096 26.836-57.468 38.337-86.84l1.278 1.276z m173.79 67.685c25.558 0 30.67 6.385 30.67 10.216-7.668 2.554-16.613 3.831-25.558 2.554-12.779-1.277-25.557-3.83-38.336-10.216 11.5-2.554 21.724-2.554 33.225-2.554zM482.206 425.77c6.39 21.71 6.39 44.697-1.278 66.407-8.945-20.433-12.778-43.42-7.667-65.13 1.278-1.277 3.834-1.277 5.112-1.277zM625.837 80.995a18.4 18.4 0 0 1 12.725 5.109l234.743 224.735c7.34 7.028 7.595 18.675 0.567 26.016a18.4 18.4 0 0 1-13.291 5.675H639.637c-17.783 0-32.2-14.416-32.2-32.2V99.395c0-10.162 8.238-18.4 18.4-18.4z" fill="#2c2c2c" p-id="3669"></path></svg>