<?xml version="1.0" standalone="no"?><!DOCTYPE svg PUBLIC "-//W3C//DTD SVG 1.1//EN" "http://www.w3.org/Graphics/SVG/1.1/DTD/svg11.dtd"><svg t="1604842474283" class="icon" viewBox="0 0 1024 1024" version="1.1" xmlns="http://www.w3.org/2000/svg" p-id="1203" xmlns:xlink="http://www.w3.org/1999/xlink" width="200" height="200"><defs><style type="text/css"></style></defs><path d="M874.660373 301.651825L597.328427 21.333227a76.799616 76.799616 0 0 0-14.506594-11.519943l-4.266646-2.133322h-2.986652A71.679642 71.679642 0 0 0 546.128683 0H200.957075A72.959635 72.959635 0 0 0 127.99744 72.106306v879.782268A72.959635 72.959635 0 0 0 200.957075 1023.99488h622.930219A71.252977 71.252977 0 0 0 895.9936 951.888574V352.424905a71.679642 71.679642 0 0 0-21.333227-50.77308zM334.07641 703.99648h-22.186556V767.99616H265.810084v-191.99904H332.796416c42.666453 0 76.799616 14.933259 76.799616 62.293022s-34.986492 65.706338-75.519622 65.706338zM500.048913 767.99616H442.022537v-191.99904h55.466389a85.332907 85.332907 0 0 1 96.852849 95.146191A85.332907 85.332907 0 0 1 500.048913 767.99616z m251.732075-154.025897h-75.946287v42.666454h64.853009v37.973143h-64.853009V767.99616h-45.653105v-191.99904h122.026056z m-170.665814-302.078489V110.506114l200.958996 201.812324z" fill="#2c2c2c" p-id="1204"></path><path d="M494.502274 613.116934h-5.546639v118.186076h5.546639c30.719846 0 52.906402-14.07993 52.906402-59.733035s-21.759891-58.453041-52.906402-58.453041zM330.663093 611.836941h-18.773239v55.893054h19.626568c22.61322 0 33.279834-11.093278 33.279834-29.439853s-11.946607-26.453201-34.133163-26.453201z" fill="#2c2c2c" p-id="1205"></path></svg>